<svg width="101" height="111" viewBox="0 0 101 111" fill="none" xmlns="http://www.w3.org/2000/svg">
<path d="M96.8906 7.25088H72.7526C71.0045 7.25088 69.5839 8.68143 69.5839 10.445C69.5839 12.2086 71.0045 13.6391 72.7526 13.6391H75.0362V95.6477H75.0162V99.9638C75.0162 105.207 79.2515 109.473 84.4615 109.473C89.667 109.473 93.9022 105.208 93.9022 99.9638V13.6391H96.8895C98.6376 13.6391 100.058 12.2086 100.058 10.445C100.058 8.68143 98.6387 7.25088 96.8906 7.25088V7.25088ZM82.8052 13.6391H87.566V55.9517H81.3802V13.6391H82.8052ZM61.6135 87.4583V87.4173C63.3638 87.4173 64.7711 86.0034 64.7944 84.2498H64.8021V21.916C64.8037 21.4958 64.7225 21.0795 64.563 20.6907C64.4036 20.3019 64.1692 19.9484 63.873 19.6503C63.5769 19.3522 63.2249 19.1155 62.8372 18.9535C62.4495 18.7915 62.0337 18.7076 61.6135 18.7064H49.5495V3.21036C49.5495 2.12168 49.0029 1.10823 48.0935 0.514098C47.6475 0.223469 47.1355 0.0498422 46.6047 0.00923615C46.0739 -0.0313699 45.5414 0.0623527 45.0564 0.281757L1.88528 19.7895C0.980257 20.1989 0.401618 20.9878 0.157107 21.8773H0V84.2099L0.00221261 84.2664L0.00442575 84.3018C0.0508939 92.8065 6.78989 99.7259 15.1719 100.031V110.168L21.5446 102.473L27.6298 110.168V100.06H61.6135C62.0337 100.059 62.4495 99.9749 62.8372 99.8129C63.2249 99.651 63.5769 99.4142 63.873 99.1161C64.1692 98.818 64.4036 98.4645 64.563 98.0757C64.7225 97.6869 64.8037 97.2706 64.8021 96.8504C64.8036 96.4304 64.7222 96.0143 64.5627 95.6258C64.4032 95.2372 64.1686 94.884 63.8725 94.5862C63.5763 94.2884 63.2244 94.0519 62.8368 93.8903C62.4492 93.7286 62.0335 93.645 61.6135 93.6441V93.6419C59.9196 93.6419 58.5455 92.2545 58.5455 90.5462C58.5434 89.7301 58.8654 88.9465 59.4406 88.3675C60.0158 87.7885 60.7973 87.4615 61.6135 87.4583V87.4583ZM6.93482 87.4173H15.173V93.5987C13.3465 93.4845 11.5933 92.8384 10.1295 91.74C8.66566 90.6417 7.55516 89.1391 6.93482 87.4173V87.4173ZM52.7303 93.6441H27.6309V87.4173H52.7414C52.3973 88.4042 52.1727 89.4442 52.1727 90.5462C52.1727 91.6371 52.3918 92.6694 52.7303 93.6441V93.6441ZM58.4304 81.0014H18.075L47.6642 67.6308C48.2269 67.376 48.7041 66.9643 49.0385 66.445C49.3729 65.9257 49.5503 65.3209 49.5495 64.7033V25.1245H58.4293V81.0014H58.4304Z" fill="black"/>
</svg>
